<?xml version="1.0" standalone="no"?>
<!DOCTYPE svg PUBLIC "-//W3C//DTD SVG 20010904//EN"
 "http://www.w3.org/TR/2001/REC-SVG-20010904/DTD/svg10.dtd">
<svg version="1.0" xmlns="http://www.w3.org/2000/svg"
 width="400.000000pt" height="638.000000pt" viewBox="0 0 400.000000 638.000000"
 preserveAspectRatio="xMidYMid meet">

<g transform="translate(0.000000,638.000000) scale(0.100000,-0.100000)"
fill="#000000" stroke="none">
<path d="M273 6341 c-107 -39 -176 -103 -227 -211 l-31 -65 0 -1970 0 -1970
23 -56 c38 -95 125 -179 232 -225 42 -18 83 -19 710 -24 l665 -5 37 -320 c22
-191 45 -350 58 -395 78 -270 248 -595 419 -797 l61 -73 0 -65 c0 -39 6 -78
15 -95 33 -63 -2 -60 693 -60 687 0 675 -1 700 55 7 14 26 146 42 293 127
1116 215 1694 288 1882 30 78 42 260 23 350 -22 103 -55 148 -290 392 -354
367 -751 759 -813 803 l-57 40 -1 1101 c0 1070 -1 1104 -20 1165 -35 114 -128
209 -244 250 -54 18 -92 19 -1143 19 -1035 -1 -1091 -2 -1140 -19z m1739 -371
c-5 -116 42 -225 134 -309 69 -63 143 -92 252 -99 l82 -5 0 -1831 -1 -1831
-53 56 c-61 65 -126 160 -187 273 -35 66 -46 99 -65 210 -65 370 -185 605
-354 691 -21 11 -65 20 -110 22 -98 5 -126 -11 -169 -99 -70 -145 -58 -412 34
-756 14 -51 25 -102 25 -113 0 -18 -11 -19 -383 -19 l-384 0 5 73 c11 173 -92
335 -255 398 -46 17 -78 22 -150 22 l-93 0 0 1453 0 1454 68 0 c228 0 403 169
405 393 l1 77 600 -2 600 -3 -2 -55z"/>
<path d="M1352 5434 c-141 -70 -175 -249 -70 -368 123 -141 351 -88 404 93 59
199 -147 368 -334 275z"/>
<path d="M1220 4829 c-461 -120 -710 -615 -533 -1057 57 -142 187 -294 321
-376 88 -53 208 -94 316 -107 461 -57 876 313 876 781 0 360 -242 670 -594
760 -107 27 -281 27 -386 -1z m444 -503 c54 -22 101 -72 130 -136 l27 -60 53
0 c28 0 57 -5 64 -12 16 -16 15 -103 -1 -116 -7 -6 -35 -12 -62 -14 l-49 -3
-13 -62 c-14 -70 -37 -121 -58 -129 -8 -3 -40 3 -72 13 -65 20 -64 20 -34 103
28 76 28 178 0 214 -16 20 -29 26 -58 26 -50 0 -71 -24 -115 -129 -44 -104
-75 -151 -122 -188 -34 -25 -45 -28 -120 -28 -76 0 -86 2 -126 30 -30 22 -52
50 -75 95 l-33 65 -57 5 -58 5 0 60 0 60 54 10 54 11 17 67 c23 95 33 103 103
82 31 -9 59 -21 63 -26 3 -5 -2 -33 -12 -62 -25 -73 -25 -169 0 -196 24 -26
77 -28 99 -3 8 9 36 62 62 117 57 123 84 159 143 190 55 28 143 33 196 11z"/>
</g>
</svg>
